<?xml version="1.0" encoding="UTF-8" standalone="no"?><!DOCTYPE svg PUBLIC "-//W3C//DTD SVG 1.1//EN" "http://www.w3.org/Graphics/SVG/1.1/DTD/svg11.dtd"><svg width="100%" height="100%" viewBox="0 0 931 505" version="1.1" xmlns="http://www.w3.org/2000/svg" xmlns:xlink="http://www.w3.org/1999/xlink" xml:space="preserve" xmlns:serif="http://www.serif.com/" style="fill-rule:evenodd;clip-rule:evenodd;stroke-linejoin:round;stroke-miterlimit:2;"><rect id="Protected-primary-color-logo-on-transparent-background" serif:id="Protected primary color logo on transparent background" x="0" y="-0" width="931" height="504.6" style="fill:none;"/><g><g><path d="M166.022,312.335l120,-120l-120,-120l69.843,0c32.115,0 62.916,12.757 85.626,35.465c12.971,12.97 24.531,24.528 24.531,24.528l60,-60.007l119.986,0.014l60.014,60.014l60,-60.014l120,0l-120,120l120,120l-69.838,0c-32.118,0 -62.92,-12.758 -85.631,-35.469c-12.971,-12.971 -24.531,-24.531 -24.531,-24.531l-60,60l-120,0l120,-120l-60,-59.986l-180,179.986l-120,0Z" style="fill:#0af;"/><path d="M406.022,312.335l240,-240l-120,-0.014l-240,240.014l120,0Z" style="fill:#0e1112;fill-opacity:0.2;"/></g><path d="M107.282,432.308l0,-27.42l-27.306,-52.556l19.423,-0l18.166,38.388l-3.199,0l18.051,-38.388l19.195,-0l-27.192,52.556l-0,27.42l-17.138,-0Z" style="fill:#0af;fill-rule:nonzero;"/><path d="M206.338,432.308l-0,-79.976l31.076,-0c6.551,-0 11.978,1.104 16.281,3.313c4.304,2.209 7.522,5.237 9.654,9.083c2.133,3.847 3.199,8.169 3.199,12.968c0,4.494 -1.028,8.645 -3.084,12.453c-2.057,3.809 -5.218,6.893 -9.483,9.255c-4.266,2.361 -9.788,3.541 -16.567,3.541l-13.938,0l-0,29.363l-17.138,-0Zm17.138,-43.073l12.796,0c4.494,0 7.75,-1.047 9.768,-3.142c2.019,-2.094 3.028,-4.894 3.028,-8.397c-0,-3.58 -1.009,-6.379 -3.028,-8.398c-2.018,-2.018 -5.274,-3.027 -9.768,-3.027l-12.796,-0l-0,22.964Z" style="fill:#0af;fill-rule:nonzero;"/><path d="M323.331,432.308l0,-79.976l53.584,-0l0,13.824l-36.446,0l0,18.852l33.019,-0l-0,13.253l-33.019,-0l0,20.222l36.446,0l0,13.825l-53.584,-0Z" style="fill:#0af;fill-rule:nonzero;"/><path d="M436.212,432.308l-0,-79.976l31.076,-0c6.474,-0 11.863,1.123 16.167,3.37c4.303,2.247 7.502,5.237 9.597,8.969c2.094,3.732 3.142,7.883 3.142,12.453c-0,4.266 -1.01,8.265 -3.028,11.997c-2.018,3.732 -5.16,6.741 -9.426,9.026c-4.265,2.285 -9.787,3.427 -16.566,3.427l-13.825,0l0,30.734l-17.137,-0Zm41.244,-0l-16.109,-34.961l18.394,-0l17.138,34.961l-19.423,-0Zm-24.107,-43.073l12.911,0c4.265,0 7.407,-1.028 9.425,-3.085c2.019,-2.056 3.028,-4.836 3.028,-8.34c0,-3.428 -1.009,-6.151 -3.028,-8.169c-2.018,-2.018 -5.16,-3.028 -9.425,-3.028l-12.911,0l0,22.622Z" style="fill:#0af;fill-rule:nonzero;"/><path d="M573.656,432.308l0,-66.152l-23.193,0l-0,-13.824l63.524,-0l-0,13.824l-23.193,0l-0,66.152l-17.138,-0Z" style="fill:#0af;fill-rule:nonzero;"/><path d="M670.313,432.308l-0,-79.976l53.584,-0l-0,13.824l-36.447,0l0,18.852l33.019,-0l0,13.253l-33.019,-0l0,20.222l36.447,0l-0,13.825l-53.584,-0Z" style="fill:#0af;fill-rule:nonzero;"/><path d="M779.194,432.308l25.364,-40.559l-25.821,-39.417l19.88,-0l17.023,25.935l15.196,-25.935l19.423,-0l-25.25,40.216l26.049,39.76l-19.879,-0l-17.138,-26.392l-15.424,26.392l-19.423,-0Z" style="fill:#0af;fill-rule:nonzero;"/></g></svg>