<?xml version="1.0" encoding="UTF-8" standalone="no"?><!DOCTYPE svg PUBLIC "-//W3C//DTD SVG 1.1//EN" "http://www.w3.org/Graphics/SVG/1.1/DTD/svg11.dtd"><svg width="100%" height="100%" viewBox="0 0 440 176" version="1.1" xmlns="http://www.w3.org/2000/svg" xmlns:xlink="http://www.w3.org/1999/xlink" xml:space="preserve" xmlns:serif="http://www.serif.com/" style="fill-rule:evenodd;clip-rule:evenodd;stroke-linejoin:round;stroke-miterlimit:2;"><rect id="Unprotected-primary-color-logogram-on-transparent-background" serif:id="Unprotected primary color logogram on transparent background" x="0" y="-0" width="440" height="176" style="fill:none;"/><clipPath id="_clip1"><rect x="0" y="-0" width="440" height="176"/></clipPath><g clip-path="url(#_clip1)"><g><path d="M-0,176.005l88,-88l-88,-88l51.097,0c23.629,0 46.29,9.386 62.999,26.093c9.478,9.477 17.904,17.902 17.904,17.902l44,-44.005l87.99,0.01l44.01,44.011l44,-44.011l88,0l-88,88l88,88l-51.094,0c-23.63,0 -46.293,-9.387 -63.003,-26.097c-9.477,-9.477 -17.903,-17.903 -17.903,-17.903l-44,44l-88,0l88,-88l-44,-43.989l-132,131.989l-88,0Z" style="fill:#0af;"/><path d="M176,176.005l176,-176l-88,-0.01l-176,176.01l88,0Z" style="fill:#0e1112;fill-opacity:0.2;"/></g></g></svg>